<svg width="150" height="151" viewBox="0 0 150 151" fill="none" xmlns="http://www.w3.org/2000/svg">
<path d="M0 75.0014C0 116.501 33.75 150.001 75 150.001C116.5 150.001 150 116.251 150 75.0014C150 33.5014 116.25 0.00138855 75 0.00138855C33.75 -0.248611 0 33.5014 0 75.0014Z" fill="url(#paint0_linear)"/>
<path d="M62 103.751C54.125 103.751 46.375 101.126 40.25 96.0014C32.875 89.6264 28.5 81.0014 27.875 71.6264C27.375 62.5014 30.375 53.7514 36.625 46.8764C43.625 39.2514 56 27.2514 56.625 26.7514C60 23.5014 65.375 23.6264 68.625 27.0014C71.875 30.3764 71.75 35.7514 68.375 39.0014C68.25 39.1264 55.75 51.0014 49.25 58.2514C46.125 61.6264 44.625 66.0014 44.875 70.5014C45.125 75.2514 47.5 79.7514 51.375 83.1264C56.5 87.6264 66.625 88.5014 73 82.8764C76.75 79.5014 81.375 74.5014 81.375 74.5014C84.5 71.0014 89.875 70.8764 93.375 74.0014C96.875 77.1264 97 82.5014 93.875 86.0014C93.625 86.2514 88.75 91.6264 84.25 95.5014C78.25 101.001 70.125 103.751 62 103.751ZM113.25 103.126C106.25 110.751 93.75 122.751 93.25 123.251C91.625 124.751 89.5 125.626 87.375 125.626C85.125 125.626 82.875 124.751 81.25 123.001C78 119.626 78.125 114.251 81.5 111.001C81.625 110.876 94.125 99.0014 100.625 91.7514C103.75 88.3764 105.25 84.0014 105 79.5014C104.75 74.7514 102.375 70.2514 98.5 66.8764C93.375 62.5014 83.25 61.5014 76.875 67.1264C73.125 70.5014 68.5 75.5014 68.5 75.5014C65.375 79.0014 60 79.1264 56.5 76.0014C53 72.8764 52.875 67.5014 56 64.0014C56.25 63.7514 61.125 58.3764 65.625 54.5014C77.625 43.7514 97.5 43.5014 109.625 54.0014C117 60.3764 121.375 69.0014 122 78.3764C122.625 87.6264 119.5 96.3764 113.25 103.126Z" fill="white"/>
<defs>
<linearGradient id="paint0_linear" x1="75.0071" y1="150.006" x2="75.0071" y2="-84.6583" gradientUnits="userSpaceOnUse">
<stop stop-color="#2255FF"/>
<stop offset="1" stop-color="#00AAFF"/>
</linearGradient>
</defs>
</svg>
